<svg xmlns="http://www.w3.org/2000/svg" width="64" height="64" viewBox="0 0 64 64" fill="none"><path d="M39.7457 40.046C38.7411 39.0465 37.5294 38.5121 36.2452 38.5121C34.9713 38.5121 33.7492 39.0366 32.7032 40.0361L29.4304 43.1534C29.1611 43.0149 28.8919 42.8863 28.633 42.7576C28.2601 42.5795 27.908 42.4112 27.6076 42.2331C24.542 40.3726 21.7561 37.948 19.084 34.8109C17.7895 33.2473 16.9195 31.9311 16.2877 30.5951C17.137 29.8529 17.9241 29.081 18.6905 28.3388C18.9805 28.0617 19.2705 27.7747 19.5605 27.4976C21.7354 25.4194 21.7354 22.7276 19.5605 20.6494L16.7331 17.9477C16.412 17.641 16.0806 17.3243 15.7699 17.0076C15.1485 16.394 14.496 15.7607 13.8228 15.1669C12.8182 14.2169 11.6168 13.7122 10.3533 13.7122C9.0898 13.7122 7.8677 14.2169 6.83203 15.1669C6.82167 15.1768 6.82167 15.1768 6.81132 15.1867L3.29003 18.5811C1.96437 19.8478 1.20832 21.3916 1.04262 23.1829C0.794055 26.0726 1.68473 28.7643 2.36828 30.5259C4.04607 34.8505 6.5524 38.8585 10.2912 43.1534C14.8274 48.3292 20.2854 52.4163 26.5202 55.2961C28.9022 56.3748 32.0818 57.6514 35.6341 57.8691C35.8516 57.879 36.0794 57.8889 36.2866 57.8889C38.679 57.8889 40.6882 57.0676 42.2624 55.4347C42.2728 55.4149 42.2935 55.405 42.3038 55.3852C42.8424 54.7617 43.4638 54.1976 44.1163 53.594C44.5616 53.1882 45.0173 52.7627 45.4627 52.3174C46.488 51.298 47.0265 50.1105 47.0265 48.8933C47.0265 47.6661 46.4776 46.4885 45.4316 45.4989L39.7457 40.046ZM43.4534 50.4668C43.4431 50.4668 43.4431 50.4767 43.4534 50.4668C43.0495 50.8824 42.6353 51.2585 42.1899 51.6741C41.5167 52.2877 40.8332 52.9309 40.1911 53.6534C39.145 54.7221 37.9126 55.2269 36.2969 55.2269C36.1416 55.2269 35.9759 55.2269 35.8205 55.217C32.7446 55.0289 29.8861 53.881 27.7423 52.9012C21.8804 50.1897 16.7331 46.34 12.4557 41.4612C8.92409 37.3938 6.56276 33.6333 4.99889 29.5956C4.03571 27.1314 3.68358 25.2116 3.83893 23.4006C3.9425 22.2427 4.40856 21.2828 5.26816 20.4614L8.79981 17.0868C9.30729 16.6315 9.84584 16.3841 10.374 16.3841C11.0265 16.3841 11.5547 16.7602 11.8861 17.0769C11.8965 17.0868 11.9068 17.0967 11.9172 17.1066C12.5489 17.6707 13.1496 18.2545 13.7814 18.878C14.1025 19.1947 14.4339 19.5114 14.7653 19.8379L17.5927 22.5396C18.6905 23.5886 18.6905 24.5584 17.5927 25.6074C17.2923 25.8944 17.0023 26.1814 16.702 26.4585C15.832 27.3096 15.0035 28.1013 14.1025 28.8732C14.0817 28.893 14.061 28.9029 14.0507 28.9227C13.16 29.7737 13.3257 30.605 13.5121 31.1691C13.5225 31.1988 13.5328 31.2285 13.5432 31.2582C14.2785 32.9603 15.3142 34.5635 16.8884 36.4735L16.8988 36.4834C19.7572 39.8481 22.771 42.4706 26.0956 44.4795C26.5202 44.7368 26.9552 44.9447 27.3694 45.1426C27.7423 45.3207 28.0944 45.489 28.3948 45.6671C28.4362 45.6869 28.4776 45.7166 28.519 45.7364C28.8712 45.9046 29.2026 45.9838 29.5443 45.9838C30.404 45.9838 30.9425 45.4692 31.1186 45.3009L34.6606 41.9164C35.0127 41.5799 35.572 41.1742 36.2244 41.1742C36.8666 41.1742 37.3948 41.5602 37.7158 41.8966C37.7262 41.9065 37.7262 41.9065 37.7365 41.9164L43.4431 47.3692C44.5098 48.3787 44.5098 49.4178 43.4534 50.4668Z" fill="#FF184E"></path><path d="M27.4829 22.1536C30.1964 22.589 32.6613 23.8161 34.629 25.6964C36.5968 27.5767 37.8707 29.932 38.3368 32.5248C38.4507 33.178 39.041 33.6332 39.7142 33.6332C39.7971 33.6332 39.8695 33.6233 39.9524 33.6134C40.7188 33.4947 41.2263 32.8019 41.102 32.0696C40.5427 28.9325 38.9892 26.0725 36.6175 23.8063C34.2458 21.54 31.2527 20.0556 27.9697 19.5212C27.2033 19.4024 26.4886 19.8873 26.354 20.6098C26.2194 21.3322 26.7165 22.0348 27.4829 22.1536Z" fill="#FF184E"></path><path d="M49.9774 31.6837C49.0556 26.5179 46.5079 21.8172 42.593 18.0764C38.6782 14.3356 33.7587 11.9011 28.3525 11.0204C27.5965 10.8917 26.8819 11.3865 26.7472 12.109C26.6229 12.8413 27.1304 13.5241 27.8968 13.6528C32.7231 14.4346 37.1247 16.6216 40.6252 19.9567C44.1258 23.3016 46.4043 27.5075 47.2225 32.1191C47.3364 32.7723 47.9267 33.2275 48.5999 33.2275C48.6828 33.2275 48.7553 33.2176 48.8381 33.2077C49.5942 33.0989 50.112 32.4061 49.9774 31.6837Z" fill="#FF184E"></path></svg>