<svg xmlns="http://www.w3.org/2000/svg" width="56" height="53" viewBox="0 0 56 53" fill="none"><path d="M31 25C30.448 25 30 25.448 30 26C30 26.552 30.448 27 31 27C31.552 27 32 26.552 32 26C32 25.448 31.552 25 31 25Z" fill="#FF184E"></path><path d="M10.1768 36.8341L0.215885 49.3848C-0.0218549 49.6841 -0.0669903 50.093 0.0991549 50.437C0.2653 50.7813 0.613933 51 0.996028 51H50.0038C50.3859 51 50.7345 50.7813 50.9007 50.437C51.0672 50.093 51.0217 49.6841 50.7839 49.3848L40.823 36.8341C40.6343 36.5959 40.3468 36.457 40.0429 36.457H31.3173L38.7666 24.7732C40.5141 22.1534 41.4374 19.0982 41.4374 15.9375C41.4374 7.1497 34.2881 0 25.4999 0C16.7117 0 9.56243 7.1497 9.56243 15.9375C9.56243 19.0982 10.4858 22.153 12.2332 24.7732L19.6825 36.457H10.957C10.6531 36.457 10.3659 36.5959 10.1768 36.8341ZM6.45781 44.7246H12.4807L9.0815 49.0078H3.05825L6.45781 44.7246ZM20.9529 38.4492L23.6836 42.7324H16.6051L20.0047 38.4492H20.9529ZM30.0473 38.4492H30.9955L34.3947 42.7324H27.3166L30.0473 38.4492ZM35.976 44.7246L39.3752 49.0078H11.6247L15.0242 44.7246H35.976ZM41.9187 49.0078L38.5192 44.7246H44.5424L47.9416 49.0078H41.9187ZM42.9611 42.7324H36.9383L33.5387 38.4492H39.562L42.9611 42.7324ZM13.8962 23.6759C12.3643 21.3826 11.5546 18.7067 11.5546 15.9375C11.5546 8.24812 17.8105 1.99219 25.4999 1.99219C33.1893 1.99219 39.4452 8.24812 39.4452 15.9375C39.4452 18.7067 38.6355 21.3826 37.104 23.6759C37.0997 23.6817 37.0962 23.6876 37.0923 23.6934C36.4383 24.7195 26.0038 41.0858 25.4999 41.8756C24.2326 39.8877 15.1981 25.7175 13.9075 23.6934C13.904 23.6876 13.9001 23.6817 13.8962 23.6759ZM17.4611 38.4492L14.062 42.7324H8.03872L11.4383 38.4492H17.4611Z" fill="#FF184E"></path><path d="M25.5 25C31.2643 25 36 20.7766 36 15.5C36 10.2616 31.2898 6 25.5 6C19.7102 6 15 10.2616 15 15.5C15 20.7781 19.7373 25 25.5 25ZM25.5 7.9C30.1319 7.9 33.9 11.3092 33.9 15.5C33.9 19.7297 30.1015 23.1 25.5 23.1C20.8972 23.1 17.1 19.7297 17.1 15.5C17.1 11.3092 20.8681 7.9 25.5 7.9Z" fill="#FF184E"></path><path d="M29.5752 29.1414C29.1603 28.8609 28.6207 29.0107 28.3704 29.4761L25.1262 35.5082C24.8759 35.9736 25.0096 36.578 25.4248 36.8585C25.8417 37.1402 26.3804 36.9873 26.6296 36.5238L29.8738 30.4917C30.1241 30.0263 29.9904 29.4219 29.5752 29.1414Z" fill="#FF184E"></path></svg>