<svg xmlns="http://www.w3.org/2000/svg" width="64" height="64" viewBox="0 0 64 64" fill="none"><path d="M52.7514 26.1847L45.0762 20.646V12.5558C44.9992 11.7544 44.3949 11.1111 43.6142 11H9.9899C9.20931 11.1113 8.6049 11.7544 8.52795 12.5558V20.5837L0.548219 26.1846C0.232136 26.419 0.0319464 26.7826 0 27.1802V56.7404C0.103768 57.5517 0.728705 58.1903 1.52282 58.2962H52.0813C52.7514 58.2962 52.995 57.4872 52.995 56.7404V27.1804C52.995 26.8069 53.0559 26.4335 52.7514 26.1847ZM45.0762 23.6331L50.3148 27.3047L45.0762 31.3498V23.6331ZM10.9645 13.4893H42.6396V33.2791L26.802 45.4766L10.9644 33.2791V13.4893H10.9645ZM8.52795 23.5709V31.4122L3.28932 27.3048L8.52795 23.5709ZM2.43656 29.8563L19.4924 43.0495L2.43656 54.8114V29.8563ZM5.36047 55.807L21.5635 44.6676L25.8884 48.0281C26.1332 48.2214 26.4318 48.3304 26.7411 48.3392C26.9848 48.3392 27.1067 48.2147 27.3502 48.0281L31.8578 44.4808L48.2436 55.807H5.36047ZM50.5585 54.3757L33.8681 42.925L50.5585 29.8563V54.3757Z" fill="#FF184E"></path><path d="M17.0562 21.5794H22.5384C23.2112 21.5794 23.7566 21.0221 23.7566 20.3347C23.7566 19.6473 23.2112 19.0901 22.5384 19.0901H17.0562C16.3833 19.0901 15.8379 19.6473 15.8379 20.3347C15.8379 21.0221 16.3833 21.5794 17.0562 21.5794Z" fill="#FF184E"></path><path d="M17.0562 27.1803H36.5486C37.2215 27.1803 37.7669 26.6231 37.7669 25.9357C37.7669 25.2483 37.2215 24.691 36.5486 24.691H17.0562C16.3833 24.691 15.8379 25.2483 15.8379 25.9357C15.8379 26.6231 16.3833 27.1803 17.0562 27.1803Z" fill="#FF184E"></path><path d="M37.7668 31.5366C37.7668 30.8492 37.2214 30.292 36.5485 30.292H17.0562C16.3833 30.292 15.8379 30.8492 15.8379 31.5366C15.8379 32.2241 16.3833 32.7813 17.0562 32.7813H36.5486C37.2214 32.7813 37.7668 32.2241 37.7668 31.5366Z" fill="#FF184E"></path></svg>